<svg width="52" height="52" viewBox="0 0 52 52" fill="none" xmlns="http://www.w3.org/2000/svg">
<path fill-rule="evenodd" clip-rule="evenodd" d="M26.0915 6.18388C15.0471 6.18388 6.09131 15.1381 6.09131 26.1841C6.09131 35.0206 11.822 42.5176 19.7686 45.1622C20.7682 45.3473 21.1352 44.7283 21.1352 44.2C21.1352 43.7231 21.1166 42.1476 21.108 40.4764C15.5439 41.6863 14.3698 38.1167 14.3698 38.1167C13.4601 35.8049 12.1492 35.1902 12.1492 35.1902C10.3346 33.9489 12.286 33.9744 12.286 33.9744C14.2943 34.1155 15.3518 36.0354 15.3518 36.0354C17.1356 39.093 20.0306 38.2091 21.1719 37.698C21.3514 36.4054 21.8697 35.5231 22.4417 35.0236C17.9994 34.5179 13.3296 32.803 13.3296 25.1395C13.3296 22.9559 14.1108 21.1718 15.3903 19.7711C15.1826 19.2674 14.498 17.2332 15.584 14.4783C15.584 14.4783 17.2635 13.9408 21.0855 16.5284C22.6808 16.0853 24.3918 15.863 26.0915 15.8554C27.7912 15.863 29.5034 16.0853 31.1018 16.5284C34.9191 13.9408 36.5963 14.4783 36.5963 14.4783C37.6849 17.2332 37 19.2674 36.7924 19.7711C38.0748 21.1718 38.8507 22.9559 38.8507 25.1395C38.8507 32.8212 34.172 34.5126 29.7184 35.0077C30.4357 35.6284 31.075 36.8455 31.075 38.7115C31.075 41.3875 31.0518 43.5413 31.0518 44.2C31.0518 44.7323 31.4118 45.3559 32.4256 45.1595C40.3679 42.5119 46.0913 35.0177 46.0913 26.1841C46.0913 15.1381 37.1368 6.18388 26.0915 6.18388Z" fill="#85C6D3"/>
<circle opacity="0.3" cx="26" cy="26" r="25" stroke="#85C6D3"/>
</svg>
