<svg width="55" height="55" viewBox="0 0 55 55" fill="none" xmlns="http://www.w3.org/2000/svg">
<g clip-path="url(#clip0)">
<rect width="55" height="55" fill="white"/>
<path d="M23.1414 24.6762C21.7687 24.6762 20.6851 25.8637 20.6851 27.3125C20.6851 28.7612 21.7928 29.9487 23.1414 29.9487C24.514 29.9487 25.5977 28.7612 25.5977 27.3125C25.6218 25.8637 24.514 24.6762 23.1414 24.6762ZM31.9312 24.6762C30.5585 24.6762 29.4749 25.8637 29.4749 27.3125C29.4749 28.7612 30.5826 29.9487 31.9312 29.9487C33.3038 29.9487 34.3875 28.7612 34.3875 27.3125C34.3875 25.8637 33.3038 24.6762 31.9312 24.6762Z" fill="#7289DA"/>
<path d="M43.6348 4.75H11.3654C8.64422 4.75 6.42871 6.935 6.42871 9.6425V41.7525C6.42871 44.46 8.64422 46.645 11.3654 46.645H38.674L37.3977 42.2513L40.4801 45.0775L43.394 47.7375L48.5716 52.25V9.6425C48.5716 6.935 46.3561 4.75 43.6348 4.75ZM34.3393 35.7675C34.3393 35.7675 33.4724 34.7463 32.7499 33.8438C35.9046 32.965 37.1087 31.0175 37.1087 31.0175C36.1214 31.6588 35.1822 32.11 34.3393 32.4188C33.1352 32.9175 31.9793 33.25 30.8475 33.44C28.5356 33.8675 26.4165 33.7488 24.6103 33.4163C23.2377 33.155 22.0577 32.775 21.0703 32.395C20.5165 32.1812 19.9144 31.92 19.3124 31.5875C19.2401 31.54 19.1679 31.5163 19.0957 31.4688C19.0475 31.445 19.0234 31.4213 18.9993 31.3975C18.5659 31.16 18.325 30.9938 18.325 30.9938C18.325 30.9938 19.481 32.8938 22.5393 33.7963C21.8169 34.6988 20.9259 35.7675 20.9259 35.7675C15.6038 35.6013 13.581 32.1575 13.581 32.1575C13.581 24.51 17.0487 18.3113 17.0487 18.3113C20.5165 15.7463 23.8156 15.8175 23.8156 15.8175L24.0565 16.1025C19.7218 17.3375 17.723 19.2138 17.723 19.2138C17.723 19.2138 18.2528 18.9288 19.1438 18.525C21.7205 17.4088 23.7675 17.1 24.6103 17.0287C24.7548 17.005 24.8752 16.9813 25.0197 16.9813C26.4887 16.7913 28.1503 16.7438 29.8842 16.9338C32.172 17.195 34.6283 17.86 37.1328 19.2138C37.1328 19.2138 35.2303 17.4325 31.1365 16.1975L31.4736 15.8175C31.4736 15.8175 34.7728 15.7463 38.2406 18.3113C38.2406 18.3113 41.7083 24.51 41.7083 32.1575C41.7083 32.1575 39.6614 35.6013 34.3393 35.7675V35.7675Z" fill="#7289DA"/>
</g>
<defs>
<clipPath id="clip0">
<rect width="55" height="55" fill="white"/>
</clipPath>
</defs>
</svg>
