<svg width="55" height="55" viewBox="0 0 55 55" fill="none" xmlns="http://www.w3.org/2000/svg">
<g clip-path="url(#clip0)">
<rect width="55" height="55" fill="white"/>
<path d="M18.1878 47.3021C36.1124 47.3021 45.9164 32.4517 45.9164 19.5735C45.9164 19.1517 45.9164 18.7318 45.8879 18.3138C47.7952 16.9342 49.4416 15.2261 50.75 13.2693C48.9714 14.0574 47.0846 14.5743 45.1526 14.8026C47.187 13.5847 48.7096 11.6691 49.4371 9.41229C47.5241 10.5475 45.4312 11.3475 43.2488 11.7778C41.7795 10.2154 39.8361 9.18081 37.7196 8.83415C35.603 8.48748 33.4311 8.84806 31.5401 9.86008C29.6491 10.8721 28.1444 12.4792 27.2588 14.4325C26.3731 16.3859 26.156 18.5768 26.6409 20.666C22.7663 20.4718 18.9759 19.4649 15.5157 17.7107C12.0555 15.9566 9.00289 13.4943 6.556 10.4839C5.30977 12.6293 4.92808 15.169 5.48863 17.586C6.04919 20.0029 7.50984 22.1154 9.5732 23.4932C8.02231 23.4472 6.50523 23.0289 5.15 22.2734C5.15 22.3133 5.15 22.3551 5.15 22.3969C5.15062 24.6469 5.9295 26.8274 7.35454 28.5687C8.77958 30.3099 10.763 31.5046 12.9685 31.9501C11.5338 32.3414 10.0284 32.3986 8.5681 32.1173C9.19084 34.0537 10.4032 35.7471 12.0357 36.9605C13.6682 38.174 15.6392 38.8469 17.6729 38.8851C14.222 41.5972 9.95901 43.0695 5.5699 43.0651C4.79452 43.0636 4.01989 43.0167 3.25 42.9245C7.70671 45.7845 12.8923 47.3016 18.1878 47.2945" fill="#1DA1F2"/>
</g>
<defs>
<clipPath id="clip0">
<rect width="55" height="55" fill="white"/>
</clipPath>
</defs>
</svg>
