<svg width="55" height="55" viewBox="0 0 55 55" fill="none" xmlns="http://www.w3.org/2000/svg">
<g clip-path="url(#clip0)">
<rect width="55" height="55" fill="white"/>
<path d="M16.2926 32.6C16.2926 34.8352 14.4667 36.6611 12.2315 36.6611C9.99634 36.6611 8.17041 34.8352 8.17041 32.6C8.17041 30.3648 9.99634 28.5389 12.2315 28.5389H16.2926V32.6Z" fill="#E01E5A"/>
<path d="M18.3389 32.6C18.3389 30.3648 20.1648 28.5389 22.4 28.5389C24.6352 28.5389 26.4611 30.3648 26.4611 32.6V42.7685C26.4611 45.0037 24.6352 46.8296 22.4 46.8296C20.1648 46.8296 18.3389 45.0037 18.3389 42.7685V32.6Z" fill="#E01E5A"/>
<path d="M22.4 16.2926C20.1648 16.2926 18.3389 14.4667 18.3389 12.2315C18.3389 9.99631 20.1648 8.17038 22.4 8.17038C24.6352 8.17038 26.4611 9.99631 26.4611 12.2315V16.2926H22.4Z" fill="#36C5F0"/>
<path d="M22.4 18.3389C24.6352 18.3389 26.4611 20.1648 26.4611 22.4C26.4611 24.6352 24.6352 26.4611 22.4 26.4611H12.2315C9.99634 26.4611 8.17041 24.6352 8.17041 22.4C8.17041 20.1648 9.99634 18.3389 12.2315 18.3389H22.4Z" fill="#36C5F0"/>
<path d="M38.7075 22.4C38.7075 20.1648 40.5334 18.3389 42.7686 18.3389C45.0038 18.3389 46.8297 20.1648 46.8297 22.4C46.8297 24.6352 45.0038 26.4611 42.7686 26.4611H38.7075V22.4Z" fill="#2EB67D"/>
<path d="M36.6613 22.4C36.6613 24.6352 34.8354 26.4611 32.6002 26.4611C30.365 26.4611 28.5391 24.6352 28.5391 22.4V12.2315C28.5391 9.99631 30.365 8.17038 32.6002 8.17038C34.8354 8.17038 36.6613 9.99631 36.6613 12.2315V22.4Z" fill="#2EB67D"/>
<path d="M32.6002 38.7074C34.8354 38.7074 36.6613 40.5334 36.6613 42.7685C36.6613 45.0037 34.8354 46.8296 32.6002 46.8296C30.365 46.8296 28.5391 45.0037 28.5391 42.7685V38.7074H32.6002Z" fill="#ECB22E"/>
<path d="M32.6002 36.6611C30.365 36.6611 28.5391 34.8352 28.5391 32.6C28.5391 30.3648 30.365 28.5389 32.6002 28.5389H42.7687C45.0039 28.5389 46.8298 30.3648 46.8298 32.6C46.8298 34.8352 45.0039 36.6611 42.7687 36.6611H32.6002Z" fill="#ECB22E"/>
</g>
<defs>
<clipPath id="clip0">
<rect width="55" height="55" fill="white"/>
</clipPath>
</defs>
</svg>
