<svg width="64" height="64" viewBox="0 0 64 64" fill="none" xmlns="http://www.w3.org/2000/svg">
<rect width="64" height="64" fill="white"/>
<path fill-rule="evenodd" clip-rule="evenodd" d="M32.045 6.1839C18.2653 6.1839 7.09131 17.3558 7.09131 31.1376C7.09131 42.1628 14.2413 51.5165 24.1562 54.8161C25.4033 55.0471 25.8611 54.2748 25.8611 53.6157C25.8611 53.0207 25.838 51.055 25.8273 48.9698C18.8851 50.4794 17.4202 46.0256 17.4202 46.0256C16.2851 43.1413 14.6496 42.3744 14.6496 42.3744C12.3855 40.8256 14.8202 40.8575 14.8202 40.8575C17.326 41.0335 18.6454 43.4289 18.6454 43.4289C20.8711 47.2438 24.483 46.1409 25.907 45.5033C26.131 43.8905 26.7777 42.7897 27.4913 42.1665C21.9487 41.5356 16.1223 39.3959 16.1223 29.8343C16.1223 27.1099 17.0971 24.8839 18.6934 23.1364C18.4343 22.5079 17.5801 19.9698 18.9351 16.5327C18.9351 16.5327 21.0306 15.862 25.7992 19.0905C27.7896 18.5376 29.9244 18.2603 32.045 18.2508C34.1657 18.2603 36.302 18.5376 38.2963 19.0905C43.0591 15.862 45.1516 16.5327 45.1516 16.5327C46.5099 19.9698 45.6554 22.5079 45.3963 23.1364C46.9963 24.8839 47.9644 27.1099 47.9644 29.8343C47.9644 39.4186 42.1268 41.5289 36.5702 42.1467C37.4653 42.9211 38.2628 44.4397 38.2628 46.7678C38.2628 50.1066 38.2339 52.7938 38.2339 53.6157C38.2339 54.2798 38.683 55.0579 39.9479 54.8128C49.8574 51.5095 56.9983 42.1591 56.9983 31.1376C56.9983 17.3558 45.826 6.1839 32.045 6.1839Z" fill="#161514"/>
</svg>
